<?xml version="1.0" encoding="iso-8859-1"?>
<!-- Generator: Adobe Illustrator 19.0.0, SVG Export Plug-In . SVG Version: 6.00 Build 0)  -->
<svg version="1.1" id="Layer_1" xmlns="http://www.w3.org/2000/svg" xmlns:xlink="http://www.w3.org/1999/xlink" x="0px" y="0px"
	 viewBox="0 0 512 512" style="enable-background:new 0 0 512 512;" xml:space="preserve">
<g>
	<path style="fill:#CEE8FA;" d="M75.581,303.956v115.433h360.838V303.956c0-16.403-13.298-29.701-29.701-29.701H105.282
		C88.879,274.255,75.581,287.552,75.581,303.956z"/>
	<rect x="85.175" y="419.392" style="fill:#CEE8FA;" width="74.09" height="77.742"/>
	<rect x="352.738" y="419.392" style="fill:#CEE8FA;" width="74.09" height="77.742"/>
</g>
<path style="fill:#2D527C;" d="M473.025,85.389h-38.88v-6.179C434.143,35.532,398.611,0,354.934,0H157.067
	c-43.677,0-79.211,35.532-79.211,79.209v6.179h-38.88c-8.21,0-14.865,6.655-14.865,14.865v92.161c0,8.21,6.655,14.865,14.865,14.865
	h38.881v61.587c-10.423,8.165-17.14,20.854-17.14,35.09v100.568h-9.476c-8.21,0-14.865,6.655-14.865,14.865
	c0,8.21,6.655,14.865,14.865,14.865H70.31v62.882c0,8.21,6.655,14.865,14.865,14.865h74.091c8.21,0,14.865-6.655,14.865-14.865
	v-62.882h163.743v62.882c0,8.21,6.656,14.865,14.865,14.865h74.091c8.208,0,14.865-6.655,14.865-14.865v-62.882h19.068
	c8.208,0,14.865-6.655,14.865-14.865c0-8.21-6.656-14.865-14.865-14.865h-9.478V303.956c0-24.574-19.991-44.566-44.564-44.566
	H107.586v-66.976v-92.161V79.209c0-27.283,22.197-49.48,49.481-49.48h8.983v99.055c0,8.21,6.655,14.865,14.865,14.865h150.17
	c8.208,0,14.865-6.655,14.865-14.865c0-8.21-6.656-14.865-14.865-14.865H195.78v-84.19h159.154c27.283,0,49.48,22.197,49.48,49.48
	v122.894c0,8.21,6.656,14.865,14.865,14.865s14.865-6.655,14.865-14.865v-86.985h24.015v77.296c0,8.21,6.656,14.865,14.865,14.865
	s14.865-6.655,14.865-14.865v-92.161C487.889,92.043,481.233,85.389,473.025,85.389z M53.841,177.549v-62.432h24.017v62.432H53.841z
	 M144.4,482.271h-44.362v-48.017H144.4L144.4,482.271L144.4,482.271z M411.964,482.271h-44.362v-48.017h44.362V482.271z
	 M421.554,303.956v35.437h-44.716c-8.208,0-14.865,6.655-14.865,14.865s6.656,14.865,14.865,14.865h44.716v35.402h-68.817H159.264
	H90.446V364.73h48.694c8.21,0,14.865-6.655,14.865-14.865S147.349,335,139.139,335H90.446v-31.045
	c0-8.181,6.656-14.836,14.836-14.836h301.436C414.898,289.119,421.554,295.776,421.554,303.956z"/>
<g>
</g>
<g>
</g>
<g>
</g>
<g>
</g>
<g>
</g>
<g>
</g>
<g>
</g>
<g>
</g>
<g>
</g>
<g>
</g>
<g>
</g>
<g>
</g>
<g>
</g>
<g>
</g>
<g>
</g>
</svg>
