<?xml version="1.0" encoding="iso-8859-1"?>
<!-- Generator: Adobe Illustrator 19.0.0, SVG Export Plug-In . SVG Version: 6.00 Build 0)  -->
<svg version="1.1" id="Layer_1" xmlns="http://www.w3.org/2000/svg" xmlns:xlink="http://www.w3.org/1999/xlink" x="0px" y="0px"
	 viewBox="0 0 512 512" style="enable-background:new 0 0 512 512;" xml:space="preserve">
<g>
	<rect x="119.76" y="317.345" style="fill:#CEE8FA;" width="272.48" height="108.683"/>
	<rect x="192.725" y="259.102" style="fill:#CEE8FA;" width="126.535" height="58.245"/>
</g>
<g>
	<path style="fill:#2D527C;" d="M451.931,483.414h-54.216l-35.445-43.082h29.968c7.893,0,14.293-6.399,14.293-14.293V317.352
		c0-7.894-6.4-14.293-14.293-14.293h-58.675v-43.952c0-7.894-6.4-14.293-14.293-14.293H192.728c-7.893,0-14.293,6.399-14.293,14.293
		v43.952h-44.381V160.814c0-21.724,17.673-39.396,39.396-39.396h165.1c21.722,0,39.395,17.673,39.395,39.396v90.131
		c0,7.894,6.4,14.293,14.293,14.293s14.293-6.399,14.293-14.293v-90.131c0-37.486-30.497-67.981-67.981-67.981h-165.1
		c-37.486,0-67.981,30.497-67.981,67.981v156.539V426.04c0,7.894,6.4,14.293,14.293,14.293h29.968l-35.446,43.082H60.069
		c-7.893,0-14.293,6.399-14.293,14.293S52.176,512,60.069,512h60.963c4.274,0,8.321-1.912,11.038-5.211l16.41-19.944h136.18
		c7.893,0,14.293-6.399,14.293-14.293s-6.4-14.293-14.293-14.293H171.999l14.747-17.925h138.507l54.676,66.455
		c2.716,3.3,6.763,5.211,11.038,5.211h60.964c7.893,0,14.293-6.399,14.293-14.293S459.824,483.414,451.931,483.414z
		 M207.021,273.399h97.956v29.659h-97.956V273.399z M134.054,382.323h38.757c7.893,0,14.293-6.399,14.293-14.293
		s-6.4-14.293-14.293-14.293h-38.757v-22.092h58.675h126.542h58.675v25.757h-35.405c-7.893,0-14.293,6.399-14.293,14.293
		c0,7.894,6.4,14.293,14.293,14.293h35.405v25.759H134.054V382.323z"/>
	<path style="fill:#2D527C;" d="M479.345,456.832c-7.893,0-14.293-6.399-14.293-14.293v-74.509c0-7.894,6.4-14.293,14.293-14.293
		s14.293,6.399,14.293,14.293v74.509C493.638,450.433,487.238,456.832,479.345,456.832z"/>
	<path style="fill:#2D527C;" d="M32.655,456.832c-7.893,0-14.293-6.399-14.293-14.293V214.563C18.362,96.253,114.615,0,232.926,0
		h46.147c118.311,0,214.563,96.253,214.563,214.563v98.608c0,7.894-6.4,14.293-14.293,14.293c-7.893,0-14.293-6.399-14.293-14.293
		v-98.608c0.001-102.549-83.429-185.978-185.978-185.978h-46.147c-102.549,0-185.978,83.429-185.978,185.978v227.976
		C46.948,450.433,40.549,456.832,32.655,456.832z"/>
</g>
<g>
</g>
<g>
</g>
<g>
</g>
<g>
</g>
<g>
</g>
<g>
</g>
<g>
</g>
<g>
</g>
<g>
</g>
<g>
</g>
<g>
</g>
<g>
</g>
<g>
</g>
<g>
</g>
<g>
</g>
</svg>
