<?xml version="1.0" encoding="UTF-8" standalone="no"?>
<!-- Created with Inkscape (http://www.inkscape.org/) -->

<svg
   xmlns:dc="http://purl.org/dc/elements/1.1/"
   xmlns:cc="http://creativecommons.org/ns#"
   xmlns:rdf="http://www.w3.org/1999/02/22-rdf-syntax-ns#"
   xmlns:svg="http://www.w3.org/2000/svg"
   xmlns="http://www.w3.org/2000/svg"
   xmlns:sodipodi="http://sodipodi.sourceforge.net/DTD/sodipodi-0.dtd"
   xmlns:inkscape="http://www.inkscape.org/namespaces/inkscape"
   width="512"
   height="512"
   viewBox="0 0 135.46666 135.46667"
   version="1.1"
   id="svg8"
   sodipodi:docname="drawing-1.svg"
   inkscape:export-filename="/home/jetmate/bitmap.png"
   inkscape:export-xdpi="96"
   inkscape:export-ydpi="96"
   inkscape:version="0.92.2 (unknown)">
  <defs
     id="defs2" />
  <sodipodi:namedview
     id="base"
     pagecolor="#ffffff"
     bordercolor="#666666"
     borderopacity="1.0"
     inkscape:pageopacity="0.0"
     inkscape:pageshadow="2"
     inkscape:zoom="0.49166018"
     inkscape:cx="-630.94728"
     inkscape:cy="205.03821"
     inkscape:document-units="mm"
     inkscape:current-layer="g885"
     showgrid="true"
     units="px"
     inkscape:snap-global="true"
     inkscape:snap-grids="false"
     inkscape:snap-page="true"
     inkscape:window-width="1920"
     inkscape:window-height="1053"
     inkscape:window-x="0"
     inkscape:window-y="0"
     inkscape:window-maximized="1">
    <inkscape:grid
       type="xygrid"
       id="grid839" />
  </sodipodi:namedview>
  <metadata
     id="metadata5">
    <rdf:RDF>
      <cc:Work
         rdf:about="">
        <dc:format>image/svg+xml</dc:format>
        <dc:type
           rdf:resource="http://purl.org/dc/dcmitype/StillImage" />
        <dc:title></dc:title>
      </cc:Work>
    </rdf:RDF>
  </metadata>
  <g
     inkscape:label="Layer 1"
     inkscape:groupmode="layer"
     id="layer1"
     transform="translate(0,-161.53332)">
    <ellipse
       style="opacity:1;fill:#1976d2;fill-opacity:0.98648652;stroke:#f8f8f8;stroke-width:2.04050279;stroke-linecap:butt;stroke-linejoin:round;stroke-miterlimit:4;stroke-dasharray:none;stroke-opacity:1"
       id="path817"
       cx="18.43162"
       cy="229.26665"
       r="12.676497" />
    <g
       id="g885"
       transform="translate(0,2.3890854)">
      <g
         id="g895"
         transform="matrix(1,0,0,1.0019268,0,4.4253897)"
         style="fill:#4ba8db;fill-opacity:0.98648652">
        <rect
           ry="0"
           y="248.97281"
           x="0"
           height="30.79562"
           width="135.46666"
           id="rect887"
           style="opacity:1;fill:#4ba8db;fill-opacity:0.98648652;stroke:none;stroke-width:2.88555503;stroke-linecap:butt;stroke-linejoin:round;stroke-miterlimit:4;stroke-dasharray:none;stroke-opacity:1" />
        <rect
           style="opacity:1;fill:#4ba8db;fill-opacity:0.98648652;stroke:none;stroke-width:2.88555503;stroke-linecap:butt;stroke-linejoin:round;stroke-miterlimit:4;stroke-dasharray:none;stroke-opacity:1"
           id="rect926"
           width="135.46666"
           height="30.79562"
           x="0"
           y="164.28033"
           ry="0" />
      </g>
      <g
         id="g922"
         transform="matrix(1.0554206,0,0,1.0554206,-1.1717722,-12.573694)"
         style="fill:#db4b4b;fill-opacity:0.98648652">
        <g
           id="g847"
           transform="translate(-0.88462237,3.3072879)"
           style="fill:#db4b4b;fill-opacity:0.98648652">
          <path
             inkscape:connector-curvature="0"
             id="circle819"
             transform="matrix(0.26458333,0,0,0.26458333,-0.17638616,155.83695)"
             d="m 192.41211,203.48828 c -24.85282,0 -45.06811,20.16556 -45,45.04102 0.0821,30 39.91784,59.98242 45,59.98242 5.08216,0 45.08217,-24.98241 45,-59.98242 -0.0584,-24.87546 -20.14718,-45.04102 -45,-45.04102 z m 0,16.78711 c 15.60407,0 28.25391,12.64982 28.25391,28.25391 -2e-5,15.60404 -12.64985,28.2539 -28.25391,28.2539 -15.60405,0 -28.25194,-12.64986 -28.25195,-28.2539 -1e-5,-15.60409 12.64789,-28.25391 28.25195,-28.25391 z"
             style="opacity:1;fill:#db4b4b;fill-opacity:0.98648652;stroke:none;stroke-width:7.24683666;stroke-linecap:butt;stroke-linejoin:round;stroke-miterlimit:4;stroke-dasharray:none;stroke-opacity:1" />
        </g>
        <g
           transform="translate(29.993074,3.3072879)"
           id="g900"
           style="fill:#db4b4b;fill-opacity:0.98648652">
          <path
             inkscape:connector-curvature="0"
             style="opacity:1;fill:#db4b4b;fill-opacity:0.98648652;stroke:none;stroke-width:7.24683666;stroke-linecap:butt;stroke-linejoin:round;stroke-miterlimit:4;stroke-dasharray:none;stroke-opacity:1"
             d="m 192.41211,203.48828 c -24.85282,0 -45.06811,20.16556 -45,45.04102 0.0821,30 39.91784,59.98242 45,59.98242 5.08216,0 45.08217,-24.98241 45,-59.98242 -0.0584,-24.87546 -20.14718,-45.04102 -45,-45.04102 z m 0,16.78711 c 15.60407,0 28.25391,12.64982 28.25391,28.25391 -2e-5,15.60404 -12.64985,28.2539 -28.25391,28.2539 -15.60405,0 -28.25194,-12.64986 -28.25195,-28.2539 -1e-5,-15.60409 12.64789,-28.25391 28.25195,-28.25391 z"
             transform="matrix(0.26458333,0,0,0.26458333,-0.17638616,155.83695)"
             id="path898" />
        </g>
        <g
           transform="translate(-31.762322,3.3072879)"
           id="g908"
           style="fill:#db4b4b;fill-opacity:0.98648652">
          <path
             inkscape:connector-curvature="0"
             style="opacity:1;fill:#db4b4b;fill-opacity:0.98648652;stroke:none;stroke-width:7.24683666;stroke-linecap:butt;stroke-linejoin:round;stroke-miterlimit:4;stroke-dasharray:none;stroke-opacity:1"
             d="m 192.41211,203.48828 c -24.85282,0 -45.06811,20.16556 -45,45.04102 0.0821,30 39.91784,59.98242 45,59.98242 5.08216,0 45.08217,-24.98241 45,-59.98242 -0.0584,-24.87546 -20.14718,-45.04102 -45,-45.04102 z m 0,16.78711 c 15.60407,0 28.25391,12.64982 28.25391,28.25391 -2e-5,15.60404 -12.64985,28.2539 -28.25391,28.2539 -15.60405,0 -28.25194,-12.64986 -28.25195,-28.2539 -1e-5,-15.60409 12.64789,-28.25391 28.25195,-28.25391 z"
             transform="matrix(0.26458333,0,0,0.26458333,-0.17638616,155.83695)"
             id="path906" />
        </g>
        <g
           id="g912"
           transform="translate(60.870769,3.3072879)"
           style="fill:#db4b4b;fill-opacity:0.98648652">
          <path
             id="path910"
             transform="matrix(0.26458333,0,0,0.26458333,-0.17638616,155.83695)"
             d="m 192.41211,203.48828 c -24.85282,0 -45.06811,20.16556 -45,45.04102 0.0821,30 39.91784,59.98242 45,59.98242 5.08216,0 45.08217,-24.98241 45,-59.98242 -0.0584,-24.87546 -20.14718,-45.04102 -45,-45.04102 z m 0,16.78711 c 15.60407,0 28.25391,12.64982 28.25391,28.25391 -2e-5,15.60404 -12.64985,28.2539 -28.25391,28.2539 -15.60405,0 -28.25194,-12.64986 -28.25195,-28.2539 -1e-5,-15.60409 12.64789,-28.25391 28.25195,-28.25391 z"
             style="opacity:1;fill:#db4b4b;fill-opacity:0.98648652;stroke:none;stroke-width:7.24683666;stroke-linecap:butt;stroke-linejoin:round;stroke-miterlimit:4;stroke-dasharray:none;stroke-opacity:1"
             inkscape:connector-curvature="0" />
        </g>
      </g>
    </g>
  </g>
</svg>
